<svg width="300" height="48" viewBox="0 0 300 48" fill="none" xmlns="http://www.w3.org/2000/svg">
<g clip-path="url(#clip0_3_178)">
<path d="M44 24C44 12.96 35.04 4 24 4C12.96 4 4 12.96 4 24C4 33.68 10.88 41.74 20 43.6V30H16V24H20V19C20 15.14 23.14 12 27 12H32V18H28C26.9 18 26 18.9 26 20V24H32V30H26V43.9C36.1 42.9 44 34.38 44 24Z" fill="#F0F0F0"/>
<path d="M110.056 4.00197C111.515 3.99637 112.975 4.01104 114.434 4.04597L114.822 4.05997C115.27 4.07597 115.712 4.09597 116.246 4.11997C118.374 4.21997 119.826 4.55597 121.1 5.04997C122.42 5.55797 123.532 6.24597 124.644 7.35797C125.661 8.35719 126.448 9.56587 126.95 10.9C127.444 12.174 127.78 13.628 127.88 15.756C127.904 16.288 127.924 16.732 127.94 17.18L127.952 17.568C127.988 19.0264 128.003 20.4852 127.998 21.944L128 23.436V26.056C128.005 27.5155 127.99 28.9749 127.954 30.434L127.942 30.822C127.926 31.27 127.906 31.712 127.882 32.246C127.782 34.374 127.442 35.826 126.95 37.1C126.449 38.4355 125.662 39.6452 124.644 40.644C123.644 41.6606 122.435 42.4475 121.1 42.95C119.826 43.444 118.374 43.78 116.246 43.88C115.712 43.904 115.27 43.924 114.822 43.94L114.434 43.952C112.975 43.9875 111.515 44.0029 110.056 43.998L108.564 44H105.946C104.487 44.0049 103.027 43.9896 101.568 43.954L101.18 43.942C100.705 43.9248 100.231 43.9048 99.756 43.882C97.628 43.782 96.176 43.442 94.9 42.95C93.5654 42.4487 92.3565 41.6616 91.358 40.644C90.3401 39.6446 89.5525 38.4351 89.05 37.1C88.556 35.826 88.22 34.374 88.12 32.246C88.0977 31.7714 88.0777 31.2967 88.06 30.822L88.05 30.434C88.0131 28.9749 87.9965 27.5155 88 26.056V21.944C87.9944 20.4852 88.0091 19.0264 88.044 17.568L88.058 17.18C88.074 16.732 88.094 16.288 88.118 15.756C88.218 13.626 88.554 12.176 89.048 10.9C89.5507 9.56521 90.3399 8.35686 91.36 7.35997C92.3578 6.34148 93.5659 5.55312 94.9 5.04997C96.176 4.55597 97.626 4.21997 99.756 4.11997L101.18 4.05997L101.568 4.04997C103.026 4.01312 104.485 3.99645 105.944 3.99997L110.056 4.00197ZM108 14.002C106.675 13.9832 105.36 14.228 104.13 14.7221C102.9 15.2162 101.781 15.9497 100.838 16.8801C99.8941 17.8104 99.1448 18.9191 98.6334 20.1415C98.122 21.364 97.8586 22.6759 97.8586 24.001C97.8586 25.3261 98.122 26.638 98.6334 27.8605C99.1448 29.0829 99.8941 30.1915 100.838 31.1219C101.781 32.0522 102.9 32.7858 104.13 33.2798C105.36 33.7739 106.675 34.0187 108 34C110.652 34 113.196 32.9464 115.071 31.071C116.946 29.1957 118 26.6521 118 24C118 21.3478 116.946 18.8043 115.071 16.9289C113.196 15.0535 110.652 14.002 108 14.002ZM108 18.002C108.797 17.9873 109.589 18.1316 110.33 18.4264C111.07 18.7212 111.745 19.1607 112.314 19.7191C112.882 20.2775 113.334 20.9436 113.643 21.6787C113.951 22.4137 114.11 23.2028 114.111 24C114.111 24.7971 113.952 25.5863 113.644 26.3214C113.335 27.0565 112.884 27.7229 112.315 28.2815C111.746 28.84 111.072 29.2797 110.331 29.5748C109.591 29.8699 108.799 30.0144 108.002 30C106.411 30 104.885 29.3678 103.759 28.2426C102.634 27.1174 102.002 25.5913 102.002 24C102.002 22.4087 102.634 20.8826 103.759 19.7573C104.885 18.6321 106.411 18 108.002 18L108 18.002ZM118.5 11.002C117.855 11.0278 117.245 11.3023 116.797 11.7679C116.35 12.2336 116.1 12.8542 116.1 13.5C116.1 14.1457 116.35 14.7664 116.797 15.232C117.245 15.6977 117.855 15.9722 118.5 15.998C119.163 15.998 119.799 15.7346 120.268 15.2657C120.737 14.7969 121 14.161 121 13.498C121 12.8349 120.737 12.199 120.268 11.7302C119.799 11.2614 119.163 10.998 118.5 10.998V11.002Z" fill="#F0F0F0"/>
<path d="M192.002 4C203.048 4 212.002 12.954 212.002 24C212.002 35.046 203.048 44 192.002 44C188.468 44.0057 184.995 43.0703 181.942 41.29L172.01 44L174.714 34.064C172.932 31.0097 171.996 27.536 172.002 24C172.002 12.954 180.956 4 192.002 4ZM185.186 14.6L184.786 14.616C184.527 14.6318 184.274 14.6998 184.042 14.816C183.825 14.9389 183.627 15.0924 183.454 15.272C183.214 15.498 183.078 15.694 182.932 15.884C182.192 16.8458 181.794 18.0266 181.8 19.24C181.804 20.22 182.06 21.174 182.46 22.066C183.278 23.87 184.624 25.78 186.4 27.55C186.828 27.976 187.248 28.404 187.7 28.802C189.907 30.7449 192.536 32.1461 195.38 32.894L196.516 33.068C196.886 33.088 197.256 33.06 197.628 33.042C198.21 33.0119 198.779 32.8542 199.294 32.58C199.556 32.4451 199.811 32.2983 200.06 32.14C200.06 32.14 200.146 32.084 200.31 31.96C200.58 31.76 200.746 31.618 200.97 31.384C201.136 31.212 201.28 31.01 201.39 30.78C201.546 30.454 201.702 29.832 201.766 29.314C201.814 28.918 201.8 28.702 201.794 28.568C201.786 28.354 201.608 28.132 201.414 28.038L200.25 27.516C200.25 27.516 198.51 26.758 197.446 26.274C197.335 26.2254 197.215 26.1976 197.094 26.192C196.957 26.1779 196.819 26.1933 196.688 26.2371C196.558 26.281 196.439 26.3522 196.338 26.446C196.328 26.442 196.194 26.556 194.748 28.308C194.665 28.4195 194.551 28.5038 194.42 28.5501C194.289 28.5964 194.147 28.6026 194.012 28.568C193.882 28.5331 193.754 28.4889 193.63 28.436C193.382 28.332 193.296 28.292 193.126 28.22C191.978 27.7191 190.915 27.0423 189.976 26.214C189.724 25.994 189.49 25.754 189.25 25.522C188.463 24.7685 187.777 23.916 187.21 22.986L187.092 22.796C187.007 22.6683 186.939 22.5306 186.888 22.386C186.812 22.092 187.01 21.856 187.01 21.856C187.01 21.856 187.496 21.324 187.722 21.036C187.942 20.756 188.128 20.484 188.248 20.29C188.484 19.91 188.558 19.52 188.434 19.218C187.874 17.85 187.294 16.488 186.698 15.136C186.58 14.868 186.23 14.676 185.912 14.638C185.804 14.626 185.696 14.614 185.588 14.606C185.319 14.5927 185.05 14.5953 184.782 14.614L185.184 14.598L185.186 14.6Z" fill="#F0F0F0"/>
<path d="M289.46 10.8199L286.9 12.8199L276 20.9199L265.1 12.7399L262.54 10.7399C261.937 10.241 261.201 9.93003 260.423 9.84545C259.644 9.76087 258.859 9.90643 258.162 10.2641C257.466 10.6218 256.89 11.1759 256.506 11.8577C256.122 12.5395 255.946 13.3191 256 14.0999V37.2799C256 38.0013 256.287 38.6932 256.797 39.2033C257.307 39.7134 257.999 40 258.72 40H265.1V24.5599L276 32.74L286.9 24.5599V40H293.28C294.001 40 294.693 39.7134 295.203 39.2033C295.713 38.6932 296 38.0013 296 37.2799V14.0999C296.038 13.3259 295.849 12.5576 295.459 11.8884C295.068 11.2192 294.491 10.678 293.798 10.3306C293.105 9.98318 292.326 9.84447 291.556 9.93134C290.786 10.0182 290.058 10.3269 289.46 10.8199Z" fill="#F0F0F0"/>
</g>
<defs>
<clipPath id="clip0_3_178">
<rect width="300" height="48" fill="white"/>
</clipPath>
</defs>
</svg>
